<svg width="40" height="40" viewBox="0 0 40 40" fill="none" xmlns="http://www.w3.org/2000/svg">
<g id="article" clip-path="url(#clip0)">
<path id="Vector" d="M35.17 9.8013L30.1984 4.82968L20.9409 14.1647L25.9135 19.1369L35.17 9.8013Z" fill="white" fill-opacity="0.74"/>
<path id="Vector_2" d="M16.4865 22.0561C16.084 23.0226 17.0544 23.9918 18.0203 23.588L23.9715 20.5094L19.5623 16.1002L16.4865 22.0561Z" fill="white" fill-opacity="0.74"/>
<path id="Vector_3" d="M39.6566 5.31463C40.1144 4.85687 40.1144 4.11498 39.6566 3.65722L36.3424 0.343315C35.8846 -0.114449 35.1428 -0.114449 34.685 0.343315L31.8557 3.1726L36.827 8.14422L39.6566 5.31463Z" fill="white" fill-opacity="0.74"/>
<path id="Vector_4" d="M3.51563 32.8906H4.6875V38.8281C4.6875 39.3018 4.97253 39.7299 5.41077 39.9106C5.84259 40.0909 6.34949 39.9948 6.68793 39.6567L13.454 32.8906H27.1094C29.0479 32.8906 30.625 31.3135 30.625 29.375V17.7396L26.9284 21.4362C26.6058 21.759 26.2292 22.0129 25.8069 22.1903L19.0973 25.6693C18.4872 25.9326 18.0295 26.0254 17.5626 26.0254C17.2137 26.0254 16.8774 25.9583 16.5524 25.8594H8.20313C7.55524 25.8594 7.03125 25.3351 7.03125 24.6875C7.03125 24.0396 7.55524 23.5156 8.20313 23.5156H14.1373C13.9059 22.7484 14.0051 21.9174 14.324 21.1548L17.9404 14.1315C18.0432 13.8718 18.2974 13.494 18.6191 13.1726L22.3386 9.45313H3.51563C1.57715 9.45313 0 11.0303 0 12.9688V29.375C0 31.3135 1.57715 32.8906 3.51563 32.8906Z" fill="#C2CED7"/>
</g>
<defs>
<clipPath id="clip0">
<rect width="40" height="40" fill="white"/>
</clipPath>
</defs>
</svg>
