<svg  viewBox="0 0 893 900" fill="none" xmlns="http://www.w3.org/2000/svg">
<path id="blob" d="M202.088 387.286C216.267 311.311 201.578 231.559 231.602 182.861C261.228 134.332 335.338 117.425 402.395 118.171C469.452 118.917 529.683 136.746 585.138 159.917C640.821 182.518 691.956 209.891 742.972 249.128C794.159 288.765 845.626 340.097 869.696 405.457C893.596 470.418 890.1 549.406 856.434 610.524C822.541 672.211 758.65 716.428 693.348 731.946C627.649 747.634 559.972 734.394 488.765 738.25C417.786 741.537 342.538 761.291 277.534 742.186C212.53 723.082 157.599 664.718 151.714 600.121C145.658 535.124 188.306 463.093 202.088 387.286Z" fill="#47FF29"/>
</svg>
