<svg viewBox="0 0 394 373" fill="none" xmlns="http://www.w3.org/2000/svg">
<g id="hero-image">
<path id="flame" d="M83.5576 171.077C89.3503 140.038 83.3496 107.457 95.6154 87.5618C107.719 67.7359 137.995 60.8289 165.391 61.1337C192.786 61.4384 217.392 68.7223 240.048 78.1883C262.796 87.4217 283.687 98.6045 304.529 114.634C325.441 130.828 346.467 151.799 356.3 178.501C366.064 205.039 364.636 237.309 350.882 262.278C337.036 287.479 310.934 305.544 284.256 311.883C257.415 318.293 229.767 312.883 200.676 314.459C171.678 315.802 140.937 323.872 114.38 316.067C87.8236 308.262 65.3825 284.418 62.978 258.028C60.504 231.474 77.9274 202.047 83.5576 171.077Z" fill="#FFB8B8"/>
<g id="person-on-desk" clip-path="url(#clip0)">
<path id="Vector" d="M268.26 212.931V265.183L277.005 279.427L277.671 280.51H312.179L312.876 212.931H268.26Z" fill="#C2CED7"/>
<path id="Vector_2" opacity="0.1" d="M268.26 212.931V265.183L277.005 279.427L277.542 212.931H268.26Z" fill="black"/>
<path id="Vector_3" d="M184.953 211.537V263.789L176.207 278.033L175.542 279.117H141.034L140.337 211.537H184.953Z" fill="#C2CED7"/>
<path id="Vector_4" opacity="0.1" d="M184.953 211.537V263.789L176.207 278.033L175.671 211.537H184.953Z" fill="black"/>
<path id="Vector_5" d="M323.333 210.492V213.627H135.805V209.099L153.234 200.042H307.996L323.333 210.492Z" fill="#C2CED7"/>
<path id="Vector_6" opacity="0.1" d="M323.333 210.492V213.627H135.805V209.099L323.333 210.492Z" fill="black"/>
<path id="Vector_7" d="M162.645 226.168H154.279L150.793 223.729H166.479L162.645 226.168Z" fill="#082032"/>
<path id="Vector_8" d="M162.645 236.27H154.279L150.793 233.832H166.479L162.645 236.27Z" fill="#082032"/>
<path id="Vector_9" d="M162.645 250.552H154.279L150.793 248.114H166.479L162.645 250.552Z" fill="#082032"/>
<path id="Vector_10" d="M162.645 264.835H154.279L150.793 262.396H166.479L162.645 264.835Z" fill="#082032"/>
<path id="Vector_11" d="M290.568 227.561H298.933L302.419 225.123H286.733L290.568 227.561Z" fill="#082032"/>
<path id="Vector_12" d="M290.568 237.663H298.933L302.419 235.225H286.733L290.568 237.663Z" fill="#082032"/>
<path id="Vector_13" d="M290.568 251.946H298.933L302.419 249.507H286.733L290.568 251.946Z" fill="#082032"/>
<path id="Vector_14" d="M290.568 266.228H298.933L302.419 263.789H286.733L290.568 266.228Z" fill="#082032"/>
<path id="Vector_15" d="M296.264 139.617H225.838C225.488 139.617 225.142 139.686 224.819 139.82C224.496 139.954 224.202 140.15 223.955 140.397C223.707 140.644 223.511 140.937 223.377 141.26C223.244 141.583 223.175 141.929 223.175 142.279V189.691C223.175 190.04 223.244 190.386 223.377 190.709C223.511 191.032 223.707 191.326 223.955 191.573C224.202 191.82 224.496 192.016 224.819 192.15C225.142 192.284 225.488 192.352 225.838 192.352H252.573L251.571 198.743C251.571 198.743 245.847 201.782 249.872 201.872C253.896 201.961 272.857 201.872 272.857 201.872C272.857 201.872 276.524 201.872 270.711 198.654L269.768 192.352H296.264C296.614 192.352 296.961 192.284 297.284 192.15C297.607 192.016 297.901 191.82 298.148 191.573C298.395 191.326 298.591 191.032 298.725 190.709C298.859 190.386 298.928 190.04 298.928 189.691V142.279C298.928 141.929 298.859 141.583 298.725 141.26C298.591 140.937 298.395 140.644 298.148 140.397C297.901 140.15 297.607 139.954 297.284 139.82C296.961 139.686 296.614 139.617 296.264 139.617V139.617Z" fill="#082032"/>
<path id="Vector_16" d="M296.379 142.433H225.724V181.939H296.379V142.433Z" fill="#F2F2F2"/>
<path id="Vector_17" d="M261.051 141.628C261.298 141.628 261.499 141.428 261.499 141.181C261.499 140.935 261.298 140.735 261.051 140.735C260.804 140.735 260.604 140.935 260.604 141.181C260.604 141.428 260.804 141.628 261.051 141.628Z" fill="#F2F2F2"/>
<path id="Vector_18" d="M261.051 190.431C261.99 190.431 262.751 189.67 262.751 188.732C262.751 187.795 261.99 187.034 261.051 187.034C260.113 187.034 259.352 187.795 259.352 188.732C259.352 189.67 260.113 190.431 261.051 190.431Z" fill="#F2F2F2"/>
<path id="Vector_19" d="M258.403 206.698V207.592H210.286V206.877L210.353 206.698L211.538 203.48H257.42L258.403 206.698Z" fill="#082032"/>
<path id="Vector_20" d="M276.92 205.823C276.833 206.198 276.502 206.593 275.754 206.966C273.071 208.307 267.615 206.609 267.615 206.609C267.615 206.609 263.412 205.894 263.412 204.017C263.53 203.936 263.653 203.863 263.78 203.798C264.908 203.201 268.648 201.73 275.28 203.86C275.769 204.013 276.205 204.299 276.541 204.686C276.69 204.832 276.802 205.011 276.867 205.209C276.933 205.407 276.951 205.617 276.92 205.823Z" fill="#082032"/>
<path id="Vector_21" opacity="0.1" d="M276.92 205.823C273.636 207.081 270.709 207.175 267.705 205.089C266.569 204.25 265.193 203.797 263.78 203.798C264.908 203.201 268.649 201.73 275.28 203.86C275.769 204.013 276.205 204.299 276.541 204.686C276.69 204.832 276.802 205.011 276.868 205.209C276.934 205.407 276.952 205.617 276.92 205.823Z" fill="black"/>
<path id="Vector_22" d="M272.803 205.089C273.445 205.089 273.965 204.929 273.965 204.732C273.965 204.534 273.445 204.374 272.803 204.374C272.16 204.374 271.64 204.534 271.64 204.732C271.64 204.929 272.16 205.089 272.803 205.089Z" fill="#F2F2F2"/>
<path id="Vector_23" opacity="0.1" d="M258.403 206.698V207.592H210.286V206.877L210.353 206.698H258.403Z" fill="black"/>
<path id="Vector_24" d="M149.086 105.594C148.598 105.554 148.109 105.663 147.684 105.907C147.267 106.193 147.004 106.693 146.736 107.158C145.709 108.959 144.32 110.527 142.656 111.764C141.444 112.651 139.903 113.758 140.11 115.394C140.22 115.934 140.419 116.452 140.701 116.926C141.819 119.182 144.871 120.926 144.571 123.5C145.682 121.641 144.196 120.722 145.307 118.863C145.836 117.978 146.755 116.979 147.554 117.535C147.821 117.721 147.997 118.055 148.275 118.218C148.94 118.608 149.647 117.863 150.235 117.335C152.263 115.515 155.148 115.992 157.672 116.559C158.864 116.827 160.172 117.178 160.877 118.316C161.803 119.813 159.997 121.429 159.541 123.121C159.503 123.265 159.502 123.416 159.535 123.561C159.569 123.706 159.638 123.84 159.735 123.953C159.832 124.066 159.956 124.154 160.094 124.208C160.233 124.263 160.382 124.284 160.531 124.268C161.288 124.193 162.185 124.132 162.23 123.8C163.183 123.834 164.35 123.726 164.759 122.734C164.883 122.342 164.949 121.933 164.954 121.522C165.104 119.856 165.812 118.337 166.28 116.751C166.749 115.166 166.953 113.308 166.162 111.902C165.88 111.435 165.53 111.011 165.126 110.644C160.638 106.304 154.737 105.588 149.086 105.594Z" fill="#082032"/>
<path id="Vector_25" d="M145.547 126.751C145.547 126.751 146.523 134.88 142.944 135.53C139.365 136.18 146.197 147.235 146.197 147.235L162.465 149.186L158.56 136.18C158.56 136.18 155.958 135.205 157.584 128.702C159.211 122.199 145.547 126.751 145.547 126.751Z" fill="#B0B0B0"/>
<path id="Vector_26" d="M135.624 266.399L136.925 284.282H143.757L141.805 266.399H135.624Z" fill="#B0B0B0"/>
<path id="Vector_27" d="M185.726 232.584L186.702 247.541L194.185 244.289L191.257 231.934L185.726 232.584Z" fill="#B0B0B0"/>
<path id="Vector_28" d="M130.744 198.119C130.744 198.119 131.069 216.978 133.021 223.155C134.973 229.333 134.648 229.658 134.323 230.633C133.997 231.609 133.672 230.959 133.672 232.584C133.672 234.21 133.021 259.896 133.672 262.172C134.323 264.448 131.72 268.35 133.672 268.675C135.624 269 144.734 268.675 145.059 266.724C145.384 264.773 142.456 264.123 143.758 262.822C145.059 261.522 147.011 234.86 147.011 234.86L151.566 216.327L160.025 206.573H177.918L183.449 228.032C183.449 228.032 181.172 234.21 182.798 234.21C184.425 234.21 194.185 236.161 194.185 229.008C194.185 221.855 190.932 200.721 190.281 200.07C189.631 199.42 190.607 197.144 189.631 196.169C188.655 195.193 177.268 188.365 173.038 187.065C168.809 185.764 162.876 184.216 162.876 184.216L130.744 198.119Z" fill="#082032"/>
<path id="Vector_29" d="M194.185 241.688C194.185 241.688 189.305 240.062 187.028 244.94C184.75 249.817 185.726 251.117 185.726 251.117C185.726 251.117 193.209 253.718 194.51 252.418C195.077 251.852 196.875 251.655 198.725 251.614C201.544 251.551 202.294 247.565 199.632 246.637C199.552 246.61 199.472 246.586 199.391 246.565C196.788 245.915 194.185 241.688 194.185 241.688Z" fill="#082032"/>
<path id="Vector_30" d="M152.867 132.116C158.257 132.116 162.627 127.749 162.627 122.362C162.627 116.975 158.257 112.608 152.867 112.608C147.476 112.608 143.107 116.975 143.107 122.362C143.107 127.749 147.476 132.116 152.867 132.116Z" fill="#B0B0B0"/>
<path id="Vector_31" d="M140.179 139.594C140.179 139.594 156.12 142.846 160.024 137.643C163.929 132.441 165.555 152.275 165.555 152.275L167.507 173.084L164.579 184.464C164.579 184.464 149.288 196.819 144.408 197.794C139.528 198.77 132.045 199.42 132.045 199.42C132.045 199.42 134.323 163.33 134.323 162.679C134.323 162.029 140.179 139.594 140.179 139.594Z" fill="#22577A"/>
<path id="Vector_32" d="M145.027 133.496C145.027 133.496 141.48 131.466 140.504 133.417C139.528 135.368 130.418 140.245 129.442 140.245C128.466 140.245 131.395 167.231 130.093 170.483C128.792 173.734 122.61 197.469 126.189 199.42C129.768 201.371 127.165 197.469 130.744 202.346C134.323 207.223 151.891 207.223 152.867 205.273C153.843 203.322 145.059 188.69 146.686 175.035C148.312 161.379 150.915 142.521 148.638 139.919C146.36 137.318 145.027 133.496 145.027 133.496Z" fill="#082032"/>
<path id="Vector_33" d="M156.771 135.693L157.224 134.134C157.224 134.134 170.761 138.619 171.411 141.545C172.062 144.471 171.737 164.955 169.459 166.581C167.182 168.207 163.928 170.808 166.206 174.709C168.483 178.611 171.086 182.838 173.038 183.163C174.99 183.488 178.569 185.764 177.593 188.04C176.617 190.316 164.905 186.089 164.905 186.089C164.905 186.089 157.096 180.237 157.422 171.133C157.747 162.029 156.771 135.693 156.771 135.693Z" fill="#082032"/>
<path id="Vector_34" d="M168.158 174.059L160.35 188.69C160.35 188.69 148.963 200.395 155.47 201.696C161.977 202.997 165.555 190.966 165.555 190.966L174.014 178.936L168.158 174.059Z" fill="#B0B0B0"/>
<path id="Vector_35" d="M149.562 108.146C149.168 108.117 148.774 108.194 148.42 108.368C148.1 108.601 147.836 108.903 147.648 109.252C146.78 110.557 145.649 111.665 144.327 112.507C143.341 113.134 142.086 113.916 142.255 115.073C142.347 115.461 142.51 115.828 142.736 116.156C143.649 117.767 144.013 119.631 143.772 121.466L146.485 117.525C146.916 116.899 147.664 116.193 148.314 116.586C148.532 116.717 148.675 116.953 148.902 117.069C149.443 117.344 150.018 116.818 150.497 116.445C152.148 115.159 154.496 115.495 156.551 115.896C157.521 116.085 158.586 116.334 159.16 117.138C160.113 118.475 159.118 120.407 159.674 121.951C159.829 121.842 159.962 121.703 160.063 121.542C160.164 121.381 160.231 121.202 160.261 121.014C161.037 121.038 161.987 120.962 162.32 120.261C162.421 119.986 162.475 119.697 162.479 119.404C162.601 118.227 163.177 117.153 163.558 116.032C163.94 114.912 164.106 113.598 163.462 112.605C163.226 112.268 162.942 111.969 162.619 111.716C158.965 108.648 154.162 108.142 149.562 108.146Z" fill="#082032"/>
<path id="Vector_36" d="M168.158 140.245L171.189 141.049C171.189 141.049 178.243 159.103 176.617 171.458C174.99 183.813 174.014 181.212 174.014 181.212C174.014 181.212 171.411 175.36 165.555 176.66L168.158 140.245Z" fill="#082032"/>
<path id="Vector_37" d="M136.075 281.918C135.29 282.984 135.448 284.507 134.753 285.633C134.15 286.608 133.015 287.12 132.261 287.985C132.021 288.272 131.807 288.58 131.621 288.906C130.922 290.076 130.354 291.575 131.042 292.752C131.596 293.698 132.76 294.068 133.827 294.32C135.177 294.638 136.579 294.893 137.944 294.65C139.308 294.407 140.642 293.571 141.129 292.274C141.225 291.948 141.338 291.627 141.469 291.313C142.209 289.858 144.53 289.842 145.287 288.396C145.817 287.383 145.33 286.16 144.843 285.126L143.356 281.969C142.862 280.921 140.862 281.524 139.819 281.273C138.459 280.945 137.053 280.585 136.075 281.918Z" fill="#082032"/>
<path id="Vector_38" d="M125.213 180.562L138.877 201.696C138.877 201.696 147.336 212.426 149.939 207.549C152.542 202.671 140.829 194.543 140.829 194.543L132.045 178.286L125.213 180.562Z" fill="#B0B0B0"/>
<path id="Vector_39" d="M132.045 140.895L129.442 140.245C129.442 140.245 124.237 141.87 122.936 148.698C121.634 155.526 122.61 182.838 124.237 183.163C125.864 183.488 132.271 178.407 133.297 179.485C134.322 180.562 131.069 175.035 132.045 172.108C133.021 169.182 132.045 140.895 132.045 140.895Z" fill="#082032"/>
<g id="Group 13">
<path id="Rectangle 55" d="M254.364 155.408H245.955V157.431H254.364V155.408Z" fill="#22577A"/>
<path id="Rectangle 56" d="M283.483 155.408H280.525V157.431H283.483V155.408Z" fill="#22577A"/>
<path id="Rectangle 57" d="M289.401 155.408H286.442V157.431H289.401V155.408Z" fill="#22577A"/>
<path id="Rectangle 58" d="M277.41 155.408H257.323V157.431H277.41V155.408Z" fill="#22577A"/>
<path id="Rectangle 59" d="M243.775 168.48H235.366V170.503H243.775V168.48Z" fill="#22577A"/>
<path id="Rectangle 60" d="M272.894 168.48H269.936V170.503H272.894V168.48Z" fill="#22577A"/>
<path id="Rectangle 61" d="M278.812 168.48H275.853V170.503H278.812V168.48Z" fill="#22577A"/>
<path id="Rectangle 62" d="M266.821 168.48H246.734V170.503H266.821V168.48Z" fill="#22577A"/>
<path id="Rectangle 63" d="M278.5 159.921H270.091V161.944H278.5V159.921Z" fill="#22577A"/>
<path id="Rectangle 64" d="M289.868 159.921H281.459V161.944H289.868V159.921Z" fill="#22577A"/>
<path id="Rectangle 66" d="M238.325 159.921H235.366V161.944H238.325V159.921Z" fill="#22577A"/>
<path id="Rectangle 67" d="M244.242 159.921H241.283V161.944H244.242V159.921Z" fill="#22577A"/>
<path id="Rectangle 68" d="M267.288 159.921H247.201V161.944H267.288V159.921Z" fill="#22577A"/>
<path id="Rectangle 69" d="M261.06 164.279H252.651V166.302H261.06V164.279Z" fill="#22577A"/>
<path id="Rectangle 70" d="M249.692 164.279H241.283V166.302H249.692V164.279Z" fill="#22577A"/>
<path id="Rectangle 71" d="M238.325 164.279H235.366V166.302H238.325V164.279Z" fill="#22577A"/>
<path id="Rectangle 73" d="M289.868 164.279H286.909V166.302H289.868V164.279Z" fill="#22577A"/>
<path id="Rectangle 74" d="M283.95 164.279H263.863V166.302H283.95V164.279Z" fill="#22577A"/>
</g>
</g>
</g>
<defs>
<clipPath id="clip0">
<rect width="201" height="189.153" fill="white" transform="translate(122.333 105.594)"/>
</clipPath>
</defs>
</svg>
