<svg width="963" height="1186" viewBox="0 0 963 1186" fill="none" xmlns="http://www.w3.org/2000/svg">
<g id="hero-flame">
<g id="hero-image">
<path id="flame" d="M203.085 418.291C217.264 342.315 202.576 262.564 232.6 213.866C262.226 165.337 336.336 148.43 403.393 149.176C470.449 149.922 530.68 167.751 586.136 190.922C641.819 213.523 692.953 240.896 743.97 280.133C795.157 319.77 846.624 371.102 870.694 436.462C894.594 501.422 891.097 580.411 857.432 641.528C823.539 703.216 759.647 747.433 694.346 762.951C628.647 778.639 560.97 765.398 489.763 769.255C418.783 772.542 343.535 792.296 278.531 773.191C213.527 754.087 158.597 695.723 152.711 631.126C146.655 566.129 189.304 494.098 203.085 418.291Z" fill="#FFB8B8"/>
<ellipse id="flame-holder" cx="525" cy="812.502" rx="26" ry="31.5" fill="#FFB8B8"/>
<g id="person-on-desk" clip-path="url(#clip0)">
<path id="Vector" d="M655.192 520.739V648.639L676.599 683.505L678.228 686.157H762.695L764.402 520.739H655.192Z" fill="#C2CED7"/>
<path id="Vector_2" opacity="0.1" d="M655.192 520.739V648.639L676.599 683.505L677.913 520.739H655.192Z" fill="black"/>
<path id="Vector_3" d="M451.277 517.328V645.229L429.87 680.095L428.241 682.746H343.774L342.067 517.328H451.277Z" fill="#C2CED7"/>
<path id="Vector_4" opacity="0.1" d="M451.277 517.328V645.229L429.87 680.095L428.556 517.328H451.277Z" fill="black"/>
<path id="Vector_5" d="M789.997 514.77V522.444H330.975V511.359L373.635 489.189H752.457L789.997 514.77Z" fill="#C2CED7"/>
<path id="Vector_6" opacity="0.1" d="M789.997 514.77V522.444H330.975V511.359L789.997 514.77Z" fill="black"/>
<path id="Vector_7" d="M396.672 553.14H376.195L367.663 547.171H406.057L396.672 553.14Z" fill="#082032"/>
<path id="Vector_8" d="M396.672 577.868H376.195L367.663 571.899H406.057L396.672 577.868Z" fill="#082032"/>
<path id="Vector_9" d="M396.672 612.827H376.195L367.663 606.858H406.057L396.672 612.827Z" fill="#082032"/>
<path id="Vector_10" d="M396.672 647.787H376.195L367.663 641.818H406.057L396.672 647.787Z" fill="#082032"/>
<path id="Vector_11" d="M709.796 556.55H730.274L738.806 550.582H700.411L709.796 556.55Z" fill="#082032"/>
<path id="Vector_12" d="M709.796 581.278H730.274L738.806 575.309H700.411L709.796 581.278Z" fill="#082032"/>
<path id="Vector_13" d="M709.796 616.238H730.274L738.806 610.269H700.411L709.796 616.238Z" fill="#082032"/>
<path id="Vector_14" d="M709.796 651.197H730.274L738.806 645.229H700.411L709.796 651.197Z" fill="#082032"/>
<path id="Vector_15" d="M723.741 341.285H551.354C550.498 341.285 549.65 341.453 548.859 341.781C548.068 342.108 547.349 342.588 546.744 343.193C546.139 343.798 545.658 344.516 545.331 345.307C545.003 346.097 544.835 346.945 544.835 347.8V463.853C544.835 464.708 545.003 465.556 545.331 466.346C545.658 467.137 546.139 467.855 546.744 468.46C547.349 469.065 548.068 469.545 548.859 469.872C549.65 470.2 550.498 470.368 551.354 470.368H616.794L614.342 486.011C614.342 486.011 600.331 493.45 610.182 493.669C620.034 493.887 666.445 493.669 666.445 493.669C666.445 493.669 675.421 493.669 661.191 485.792L658.885 470.368H723.741C724.597 470.368 725.445 470.2 726.236 469.872C727.027 469.545 727.746 469.065 728.351 468.46C728.956 467.855 729.437 467.137 729.764 466.346C730.092 465.556 730.26 464.708 730.26 463.853V347.8C730.26 346.945 730.092 346.097 729.764 345.307C729.437 344.516 728.956 343.798 728.351 343.193C727.746 342.588 727.027 342.108 726.236 341.781C725.445 341.453 724.597 341.285 723.741 341.285Z" fill="#082032"/>
<path id="Vector_16" d="M724.021 348.177H551.074V444.88H724.021V348.177Z" fill="#F2F2F2"/>
<path id="Vector_17" d="M637.547 346.208C638.152 346.208 638.642 345.718 638.642 345.114C638.642 344.51 638.152 344.02 637.547 344.02C636.943 344.02 636.453 344.51 636.453 345.114C636.453 345.718 636.943 346.208 637.547 346.208Z" fill="#F2F2F2"/>
<path id="Vector_18" d="M637.547 465.664C639.845 465.664 641.707 463.803 641.707 461.507C641.707 459.211 639.845 457.35 637.547 457.35C635.25 457.35 633.388 459.211 633.388 461.507C633.388 463.803 635.25 465.664 637.547 465.664Z" fill="#F2F2F2"/>
<path id="Vector_19" d="M631.066 505.483V507.671H513.287V505.921L513.449 505.483L516.352 497.607H628.658L631.066 505.483Z" fill="#082032"/>
<path id="Vector_20" d="M676.391 503.341C676.176 504.258 675.366 505.225 673.536 506.139C666.969 509.421 653.614 505.264 653.614 505.264C653.614 505.264 643.325 503.514 643.325 498.919C643.614 498.722 643.915 498.543 644.227 498.383C646.988 496.924 656.144 493.321 672.377 498.536C673.573 498.911 674.641 499.611 675.463 500.557C675.827 500.915 676.1 501.353 676.262 501.837C676.423 502.321 676.468 502.837 676.391 503.341Z" fill="#082032"/>
<path id="Vector_21" opacity="0.1" d="M676.391 503.341C668.352 506.419 661.187 506.649 653.834 501.545C651.053 499.49 647.685 498.382 644.227 498.383C646.989 496.924 656.144 493.321 672.377 498.536C673.573 498.911 674.641 499.611 675.463 500.557C675.827 500.915 676.101 501.353 676.262 501.837C676.423 502.321 676.468 502.837 676.391 503.341Z" fill="black"/>
<path id="Vector_22" d="M666.312 501.545C667.884 501.545 669.158 501.153 669.158 500.67C669.158 500.186 667.884 499.795 666.312 499.795C664.74 499.795 663.466 500.186 663.466 500.67C663.466 501.153 664.74 501.545 666.312 501.545Z" fill="#F2F2F2"/>
<path id="Vector_23" opacity="0.1" d="M631.066 505.483V507.671H513.287V505.921L513.449 505.483H631.066Z" fill="black"/>
<path id="Vector_24" d="M363.484 258.005C362.289 257.907 361.092 258.174 360.052 258.771C359.031 259.47 358.387 260.694 357.73 261.834C355.219 266.242 351.818 270.08 347.745 273.106C344.778 275.278 341.005 277.987 341.513 281.992C341.781 283.315 342.27 284.583 342.959 285.743C345.697 291.265 353.166 295.533 352.431 301.834C355.151 297.284 351.513 295.034 354.233 290.484C355.528 288.317 357.777 285.872 359.733 287.232C360.387 287.688 360.817 288.505 361.499 288.905C363.126 289.859 364.856 288.035 366.296 286.743C371.261 282.289 378.321 283.456 384.5 284.844C387.417 285.499 390.62 286.359 392.345 289.145C394.612 292.808 390.191 296.764 389.074 300.905C388.983 301.258 388.978 301.628 389.061 301.983C389.144 302.338 389.312 302.667 389.55 302.943C389.788 303.219 390.09 303.433 390.429 303.568C390.768 303.702 391.134 303.752 391.497 303.714C393.351 303.531 395.547 303.381 395.657 302.568C397.989 302.651 400.847 302.387 401.846 299.96C402.152 299 402.313 297.999 402.326 296.992C402.692 292.915 404.424 289.195 405.571 285.315C406.718 281.434 407.217 276.886 405.281 273.446C404.59 272.301 403.736 271.263 402.745 270.365C391.76 259.741 377.317 257.989 363.484 258.005Z" fill="#082032"/>
<path id="Vector_25" d="M354.82 309.792C354.82 309.792 357.209 329.689 348.449 331.281C339.689 332.872 356.413 359.932 356.413 359.932L396.231 364.707L386.674 332.872C386.674 332.872 380.304 330.485 384.285 314.567C388.267 298.65 354.82 309.792 354.82 309.792Z" fill="#B0B0B0"/>
<path id="Vector_26" d="M330.531 651.616L333.717 695.388H350.44L345.662 651.616H330.531Z" fill="#B0B0B0"/>
<path id="Vector_27" d="M453.17 568.846L455.559 605.455L473.876 597.497L466.708 567.254L453.17 568.846Z" fill="#B0B0B0"/>
<path id="Vector_28" d="M318.586 484.484C318.586 484.484 319.382 530.644 324.16 545.766C328.939 560.887 328.142 561.683 327.346 564.071C326.55 566.458 325.753 564.867 325.753 568.846C325.753 572.825 324.16 635.698 325.753 641.269C327.346 646.84 320.975 656.391 325.753 657.187C330.531 657.983 352.829 657.187 353.626 652.412C354.422 647.636 347.255 646.045 350.44 642.861C353.626 639.678 358.404 574.417 358.404 574.417L369.553 529.053L390.258 505.177H434.058L447.596 557.704C447.596 557.704 442.021 572.825 446.003 572.825C449.985 572.825 473.875 577.6 473.875 560.091C473.875 542.582 465.912 490.851 464.319 489.259C462.726 487.668 465.116 482.097 462.726 479.709C460.337 477.322 432.465 460.608 422.112 457.425C411.76 454.242 397.237 450.453 397.237 450.453L318.586 484.484Z" fill="#082032"/>
<path id="Vector_29" d="M473.876 591.13C473.876 591.13 461.93 587.151 456.356 599.089C450.781 611.027 453.17 614.21 453.17 614.21C453.17 614.21 471.487 620.577 474.672 617.394C476.058 616.008 480.459 615.527 484.989 615.426C491.888 615.271 493.723 605.516 487.207 603.245C487.013 603.177 486.816 603.118 486.617 603.068C480.246 601.476 473.876 591.13 473.876 591.13Z" fill="#082032"/>
<path id="Vector_30" d="M372.738 322.924C385.933 322.924 396.629 312.234 396.629 299.048C396.629 285.862 385.933 275.172 372.738 275.172C359.544 275.172 348.847 285.862 348.847 299.048C348.847 312.234 359.544 322.924 372.738 322.924Z" fill="#B0B0B0"/>
<path id="Vector_31" d="M341.68 341.229C341.68 341.229 380.702 349.188 390.258 336.454C399.814 323.72 403.796 372.268 403.796 372.268L408.574 423.203L401.407 451.058C401.407 451.058 363.978 481.301 352.033 483.688C340.088 486.076 321.771 487.668 321.771 487.668C321.771 487.668 327.346 399.327 327.346 397.735C327.346 396.143 341.68 341.229 341.68 341.229Z" fill="#22577A"/>
<path id="Vector_32" d="M353.548 326.303C353.548 326.303 344.866 321.332 342.477 326.107C340.088 330.883 317.79 342.821 315.4 342.821C313.011 342.821 320.179 408.877 316.993 416.836C313.808 424.795 298.677 482.893 307.437 487.668C316.197 492.443 309.826 482.893 318.586 494.831C327.346 506.769 370.349 506.768 372.738 501.993C375.127 497.218 353.626 461.404 357.607 427.978C361.589 394.552 367.96 348.392 362.385 342.025C356.811 335.658 353.548 326.303 353.548 326.303Z" fill="#082032"/>
<path id="Vector_33" d="M382.294 331.679L383.404 327.864C383.404 327.864 416.538 338.841 418.13 346.004C419.723 353.167 418.927 403.306 413.352 407.286C407.778 411.265 399.814 417.632 405.389 427.182C410.963 436.733 417.334 447.079 422.112 447.875C426.89 448.67 435.65 454.242 433.261 459.813C430.872 465.384 402.203 455.037 402.203 455.037C402.203 455.037 383.091 440.712 383.887 418.428C384.684 396.143 382.294 331.679 382.294 331.679Z" fill="#082032"/>
<path id="Vector_34" d="M410.167 425.59L391.054 461.404C391.054 461.404 363.182 490.055 379.109 493.239C395.036 496.422 403.796 466.975 403.796 466.975L424.501 437.528L410.167 425.59Z" fill="#B0B0B0"/>
<path id="Vector_35" d="M364.648 264.252C363.685 264.181 362.72 264.368 361.854 264.794C361.071 265.365 360.425 266.105 359.964 266.958C357.84 270.151 355.071 272.865 351.835 274.926C349.42 276.461 346.349 278.375 346.763 281.206C346.987 282.155 347.386 283.054 347.94 283.857C350.176 287.8 351.066 292.363 350.475 296.856L357.117 287.208C358.171 285.677 360.002 283.948 361.594 284.91C362.127 285.232 362.477 285.809 363.032 286.092C364.356 286.766 365.765 285.477 366.937 284.564C370.978 281.416 376.726 282.241 381.756 283.222C384.13 283.685 386.738 284.292 388.142 286.261C390.474 289.534 388.039 294.262 389.4 298.042C389.781 297.776 390.105 297.435 390.352 297.041C390.599 296.647 390.764 296.208 390.838 295.749C392.736 295.808 395.063 295.621 395.876 293.906C396.124 293.233 396.256 292.524 396.266 291.808C396.565 288.926 397.975 286.297 398.908 283.554C399.842 280.812 400.248 277.597 398.672 275.166C398.096 274.342 397.4 273.608 396.608 272.988C387.665 265.479 375.908 264.241 364.648 264.252Z" fill="#082032"/>
<path id="Vector_36" d="M410.167 342.821L417.587 344.789C417.587 344.789 434.854 388.981 430.872 419.224C426.89 449.466 424.501 443.099 424.501 443.099C424.501 443.099 418.131 428.774 403.796 431.957L410.167 342.821Z" fill="#082032"/>
<path id="Vector_37" d="M331.635 689.603C329.714 692.211 330.099 695.939 328.398 698.695C326.924 701.084 324.145 702.337 322.3 704.453C321.712 705.157 321.187 705.911 320.733 706.707C319.022 709.571 317.631 713.242 319.316 716.121C320.672 718.438 323.521 719.343 326.134 719.96C329.436 720.74 332.868 721.364 336.209 720.768C339.55 720.172 342.815 718.127 344.006 714.952C344.24 714.153 344.518 713.368 344.84 712.601C346.65 709.038 352.33 708.999 354.183 705.459C355.48 702.981 354.288 699.986 353.096 697.456L349.457 689.728C348.249 687.164 343.352 688.638 340.8 688.024C337.471 687.222 334.029 686.339 331.635 689.603Z" fill="#082032"/>
<path id="Vector_38" d="M305.048 441.508L338.495 493.239C338.495 493.239 359.2 519.502 365.571 507.564C371.942 495.626 343.273 475.73 343.273 475.73L321.771 435.937L305.048 441.508Z" fill="#B0B0B0"/>
<path id="Vector_39" d="M321.771 344.412L315.401 342.821C315.401 342.821 302.659 346.8 299.473 363.513C296.288 380.226 298.677 447.079 302.659 447.875C306.641 448.67 322.325 436.234 324.835 438.871C327.346 441.508 319.382 427.978 321.771 420.815C324.16 413.652 321.771 344.412 321.771 344.412Z" fill="#082032"/>
<g id="Group 13">
<path id="Rectangle 55" d="M621.178 379.937H600.595V384.889H621.178V379.937Z" fill="#22577A"/>
<path id="Rectangle 56" d="M692.455 379.937H685.213V384.889H692.455V379.937Z" fill="#22577A"/>
<path id="Rectangle 57" d="M706.939 379.937H699.697V384.889H706.939V379.937Z" fill="#22577A"/>
<path id="Rectangle 58" d="M677.59 379.937H628.42V384.889H677.59V379.937Z" fill="#22577A"/>
<path id="Rectangle 59" d="M595.259 411.935H574.677V416.887H595.259V411.935Z" fill="#22577A"/>
<path id="Rectangle 60" d="M666.536 411.935H659.294V416.887H666.536V411.935Z" fill="#22577A"/>
<path id="Rectangle 61" d="M681.02 411.935H673.778V416.887H681.02V411.935Z" fill="#22577A"/>
<path id="Rectangle 62" d="M651.671 411.935H602.501V416.887H651.671V411.935Z" fill="#22577A"/>
<path id="Rectangle 63" d="M680.258 390.984H659.675V395.936H680.258V390.984Z" fill="#22577A"/>
<path id="Rectangle 64" d="M708.083 390.984H687.5V395.936H708.083V390.984Z" fill="#22577A"/>
<path id="Rectangle 66" d="M581.919 390.984H574.677V395.936H581.919V390.984Z" fill="#22577A"/>
<path id="Rectangle 67" d="M596.403 390.984H589.161V395.936H596.403V390.984Z" fill="#22577A"/>
<path id="Rectangle 68" d="M652.814 390.984H603.645V395.936H652.814V390.984Z" fill="#22577A"/>
<path id="Rectangle 69" d="M637.568 401.65H616.985V406.602H637.568V401.65Z" fill="#22577A"/>
<path id="Rectangle 70" d="M609.743 401.65H589.161V406.602H609.743V401.65Z" fill="#22577A"/>
<path id="Rectangle 71" d="M581.919 401.65H574.677V406.602H581.919V401.65Z" fill="#22577A"/>
<path id="Rectangle 73" d="M708.083 401.65H700.841V406.602H708.083V401.65Z" fill="#22577A"/>
<path id="Rectangle 74" d="M693.599 401.65H644.429V406.602H693.599V401.65Z" fill="#22577A"/>
</g>
</g>
</g>
<path id="candle" d="M256.154 835.294C255.575 818.077 271.596 805.067 288.328 809.167L507.15 862.792C510.405 863.59 513.784 863.751 517.1 863.266L780.913 824.692C797.376 822.285 811.833 835.747 810.603 852.34L795.064 1062L787.022 1162.08C785.936 1175.59 774.657 1186 761.105 1186H293.094C279.074 1186 267.58 1174.89 267.108 1160.87L256.154 835.294Z" fill="#FFB8B8"/>
</g>
<defs>
<clipPath id="clip0">
<rect width="492" height="463" fill="white" transform="translate(297.997 258.005)"/>
</clipPath>
</defs>
</svg>
