<svg viewBox="0 0 388 380" fill="none" xmlns="http://www.w3.org/2000/svg">
<g id="hero-image">
<path id="flame" d="M81.2998 168.277C87.0041 137.711 81.095 105.627 93.1736 86.0362C105.092 66.513 134.907 59.7114 161.883 60.0115C188.86 60.3116 213.091 67.4843 235.401 76.8058C257.802 85.8982 278.374 96.9103 298.898 112.695C319.49 128.641 340.195 149.292 349.879 175.587C359.494 201.72 358.087 233.497 344.543 258.085C330.908 282.901 305.205 300.69 278.934 306.933C252.503 313.244 225.277 307.918 196.63 309.469C168.075 310.791 137.803 318.738 111.652 311.053C85.5007 303.367 63.4022 279.887 61.0345 253.9C58.5982 227.752 75.7556 198.773 81.2998 168.277Z" fill="#FFB8B8"/>
<ellipse id="flame-holder" cx="210.148" cy="329.906" rx="10.4598" ry="12.6724" transform="rotate(91.9427 210.148 329.906)" fill="#FFB8B8"/>
<g id="person-on-desk" clip-path="url(#clip0)">
<path id="Vector" d="M263.182 209.491V260.945L271.794 274.972L272.45 276.039H306.431L307.117 209.491H263.182Z" fill="#C2CED7"/>
<path id="Vector_2" opacity="0.1" d="M263.182 209.491V260.945L271.794 274.972L272.323 209.491H263.182Z" fill="black"/>
<path id="Vector_3" d="M181.147 208.119V259.573L172.535 273.6L171.88 274.666H137.899L137.212 208.119H181.147Z" fill="#C2CED7"/>
<path id="Vector_4" opacity="0.1" d="M181.147 208.119V259.573L172.535 273.6L172.007 208.119H181.147Z" fill="black"/>
<path id="Vector_5" d="M317.414 207.09V210.177H132.75V205.718L149.912 196.799H302.312L317.414 207.09Z" fill="#C2CED7"/>
<path id="Vector_6" opacity="0.1" d="M317.414 207.09V210.177H132.75V205.718L317.414 207.09Z" fill="black"/>
<path id="Vector_7" d="M159.18 222.526H150.942L147.509 220.125H162.955L159.18 222.526Z" fill="#082032"/>
<path id="Vector_8" d="M159.18 232.474H150.942L147.509 230.073H162.955L159.18 232.474Z" fill="#082032"/>
<path id="Vector_9" d="M159.18 246.538H150.942L147.509 244.137H162.955L159.18 246.538Z" fill="#082032"/>
<path id="Vector_10" d="M159.18 260.602H150.942L147.509 258.201H162.955L159.18 260.602Z" fill="#082032"/>
<path id="Vector_11" d="M285.149 223.898H293.387L296.82 221.497H281.374L285.149 223.898Z" fill="#082032"/>
<path id="Vector_12" d="M285.149 233.846H293.387L296.82 231.445H281.374L285.149 233.846Z" fill="#082032"/>
<path id="Vector_13" d="M285.149 247.91H293.387L296.82 245.509H281.374L285.149 247.91Z" fill="#082032"/>
<path id="Vector_14" d="M285.149 261.974H293.387L296.82 259.573H281.374L285.149 261.974Z" fill="#082032"/>
<path id="Vector_15" d="M290.759 137.297H221.408C221.064 137.297 220.723 137.365 220.405 137.496C220.086 137.628 219.797 137.821 219.554 138.064C219.31 138.308 219.117 138.597 218.985 138.915C218.853 139.233 218.786 139.574 218.786 139.918V186.606C218.786 186.95 218.853 187.291 218.985 187.609C219.117 187.927 219.31 188.216 219.554 188.459C219.797 188.703 220.086 188.896 220.405 189.027C220.723 189.159 221.064 189.227 221.408 189.227H247.735L246.748 195.52C246.748 195.52 241.112 198.513 245.075 198.601C249.038 198.689 267.709 198.601 267.709 198.601C267.709 198.601 271.32 198.601 265.596 195.432L264.668 189.227H290.759C291.104 189.227 291.445 189.159 291.763 189.027C292.081 188.896 292.371 188.703 292.614 188.459C292.858 188.216 293.051 187.927 293.183 187.609C293.314 187.291 293.382 186.95 293.382 186.606V139.918C293.382 139.574 293.314 139.233 293.183 138.915C293.051 138.597 292.858 138.308 292.614 138.064C292.371 137.821 292.081 137.628 291.763 137.496C291.445 137.365 291.104 137.297 290.759 137.297V137.297Z" fill="#082032"/>
<path id="Vector_16" d="M290.872 140.069H221.296V178.973H290.872V140.069Z" fill="#F2F2F2"/>
<path id="Vector_17" d="M256.084 139.277C256.327 139.277 256.524 139.08 256.524 138.837C256.524 138.594 256.327 138.397 256.084 138.397C255.841 138.397 255.644 138.594 255.644 138.837C255.644 139.08 255.841 139.277 256.084 139.277Z" fill="#F2F2F2"/>
<path id="Vector_18" d="M256.084 187.335C257.008 187.335 257.757 186.586 257.757 185.662C257.757 184.739 257.008 183.99 256.084 183.99C255.16 183.99 254.411 184.739 254.411 185.662C254.411 186.586 255.16 187.335 256.084 187.335Z" fill="#F2F2F2"/>
<path id="Vector_19" d="M253.476 203.354V204.234H206.094V203.53L206.159 203.354L207.327 200.185H252.508L253.476 203.354Z" fill="#082032"/>
<path id="Vector_20" d="M271.711 202.492C271.624 202.861 271.298 203.25 270.562 203.618C267.92 204.938 262.548 203.266 262.548 203.266C262.548 203.266 258.408 202.562 258.408 200.713C258.524 200.634 258.646 200.562 258.771 200.498C259.882 199.91 263.565 198.461 270.096 200.559C270.577 200.71 271.007 200.991 271.337 201.372C271.483 201.516 271.594 201.692 271.659 201.887C271.724 202.082 271.741 202.289 271.711 202.492Z" fill="#082032"/>
<path id="Vector_21" opacity="0.1" d="M271.71 202.492C268.477 203.73 265.594 203.823 262.636 201.769C261.517 200.943 260.162 200.497 258.771 200.498C259.882 199.91 263.565 198.461 270.096 200.559C270.577 200.71 271.006 200.991 271.337 201.372C271.483 201.516 271.594 201.692 271.659 201.887C271.723 202.082 271.741 202.289 271.71 202.492Z" fill="black"/>
<path id="Vector_22" d="M267.656 201.769C268.288 201.769 268.801 201.612 268.801 201.417C268.801 201.223 268.288 201.065 267.656 201.065C267.023 201.065 266.511 201.223 266.511 201.417C266.511 201.612 267.023 201.769 267.656 201.769Z" fill="#F2F2F2"/>
<path id="Vector_23" opacity="0.1" d="M253.476 203.354V204.234H206.094V203.53L206.159 203.354H253.476Z" fill="black"/>
<path id="Vector_24" d="M145.828 103.793C145.347 103.754 144.866 103.861 144.448 104.102C144.037 104.383 143.778 104.875 143.514 105.334C142.503 107.107 141.135 108.651 139.496 109.869C138.303 110.742 136.785 111.832 136.989 113.443C137.097 113.976 137.294 114.486 137.571 114.952C138.672 117.174 141.677 118.891 141.382 121.426C142.476 119.595 141.012 118.69 142.106 116.86C142.627 115.988 143.532 115.004 144.319 115.551C144.582 115.735 144.755 116.064 145.03 116.224C145.684 116.608 146.38 115.874 146.959 115.355C148.957 113.563 151.797 114.032 154.283 114.591C155.456 114.854 156.745 115.2 157.439 116.321C158.351 117.794 156.572 119.386 156.123 121.052C156.086 121.194 156.085 121.343 156.118 121.486C156.151 121.628 156.219 121.761 156.315 121.872C156.41 121.983 156.532 122.069 156.668 122.123C156.805 122.177 156.952 122.197 157.098 122.182C157.844 122.108 158.727 122.048 158.771 121.721C159.71 121.754 160.859 121.648 161.261 120.672C161.384 120.285 161.449 119.883 161.454 119.478C161.602 117.837 162.298 116.341 162.76 114.78C163.221 113.219 163.422 111.389 162.643 110.005C162.365 109.545 162.021 109.127 161.623 108.766C157.204 104.492 151.393 103.787 145.828 103.793Z" fill="#082032"/>
<path id="Vector_25" d="M142.343 124.627C142.343 124.627 143.304 132.632 139.78 133.272C136.256 133.912 142.984 144.798 142.984 144.798L159.002 146.719L155.158 133.912C155.158 133.912 152.595 132.952 154.197 126.548C155.798 120.145 142.343 124.627 142.343 124.627Z" fill="#B0B0B0"/>
<path id="Vector_26" d="M132.571 262.143L133.853 279.753H140.581L138.659 262.143H132.571Z" fill="#B0B0B0"/>
<path id="Vector_27" d="M181.909 228.845L182.87 243.573L190.239 240.371L187.355 228.204L181.909 228.845Z" fill="#B0B0B0"/>
<path id="Vector_28" d="M127.766 194.906C127.766 194.906 128.086 213.476 130.008 219.559C131.931 225.643 131.61 225.963 131.29 226.923C130.97 227.884 130.649 227.244 130.649 228.845C130.649 230.445 130.008 255.739 130.649 257.981C131.29 260.222 128.727 264.064 130.649 264.384C132.571 264.704 141.542 264.384 141.862 262.463C142.183 260.542 139.299 259.902 140.581 258.621C141.862 257.34 143.785 231.086 143.785 231.086L148.27 212.836L156.6 203.23H174.22L179.666 224.362C179.666 224.362 177.424 230.445 179.026 230.445C180.628 230.445 190.239 232.366 190.239 225.323C190.239 218.279 187.035 197.467 186.394 196.827C185.754 196.187 186.715 193.945 185.754 192.985C184.792 192.024 173.579 185.301 169.414 184.02C165.25 182.739 159.407 181.215 159.407 181.215L127.766 194.906Z" fill="#082032"/>
<path id="Vector_29" d="M190.239 237.809C190.239 237.809 185.433 236.209 183.19 241.011C180.948 245.814 181.909 247.095 181.909 247.095C181.909 247.095 189.277 249.656 190.559 248.375C191.116 247.818 192.887 247.624 194.709 247.584C197.485 247.521 198.223 243.597 195.602 242.683C195.524 242.656 195.445 242.632 195.365 242.612C192.802 241.972 190.239 237.809 190.239 237.809Z" fill="#082032"/>
<path id="Vector_30" d="M149.551 129.91C154.859 129.91 159.162 125.61 159.162 120.305C159.162 115 154.859 110.7 149.551 110.7C144.243 110.7 139.94 115 139.94 120.305C139.94 125.61 144.243 129.91 149.551 129.91Z" fill="#B0B0B0"/>
<path id="Vector_31" d="M137.056 137.274C137.056 137.274 152.755 140.476 156.599 135.353C160.444 130.23 162.046 149.761 162.046 149.761L163.968 170.252L161.085 181.459C161.085 181.459 146.027 193.625 141.221 194.586C136.416 195.546 129.047 196.187 129.047 196.187C129.047 196.187 131.29 160.647 131.29 160.007C131.29 159.366 137.056 137.274 137.056 137.274Z" fill="#22577A"/>
<path id="Vector_32" d="M141.831 131.27C141.831 131.27 138.338 129.27 137.377 131.191C136.416 133.112 127.446 137.915 126.484 137.915C125.523 137.915 128.407 164.489 127.125 167.691C125.844 170.893 119.757 194.266 123.281 196.187C126.805 198.108 124.242 194.266 127.766 199.068C131.29 203.871 148.59 203.871 149.551 201.95C150.512 200.029 141.862 185.621 143.464 172.173C145.066 158.726 147.629 140.156 145.386 137.594C143.144 135.033 141.831 131.27 141.831 131.27Z" fill="#082032"/>
<path id="Vector_33" d="M153.396 133.432L153.842 131.897C153.842 131.897 167.172 136.314 167.813 139.195C168.453 142.077 168.133 162.248 165.89 163.849C163.648 165.45 160.444 168.011 162.687 171.853C164.929 175.695 167.492 179.858 169.414 180.178C171.337 180.498 174.861 182.739 173.9 184.98C172.939 187.222 161.405 183.059 161.405 183.059C161.405 183.059 153.716 177.296 154.037 168.331C154.357 159.366 153.396 133.432 153.396 133.432Z" fill="#082032"/>
<path id="Vector_34" d="M164.609 171.213L156.92 185.621C156.92 185.621 145.707 197.147 152.114 198.428C158.522 199.709 162.046 187.862 162.046 187.862L170.375 176.016L164.609 171.213Z" fill="#B0B0B0"/>
<path id="Vector_35" d="M146.296 106.307C145.909 106.278 145.521 106.353 145.172 106.524C144.857 106.754 144.597 107.052 144.412 107.395C143.558 108.68 142.444 109.772 141.142 110.6C140.17 111.218 138.935 111.988 139.101 113.127C139.191 113.509 139.352 113.871 139.575 114.194C140.474 115.78 140.832 117.615 140.595 119.423L143.267 115.542C143.691 114.926 144.428 114.23 145.068 114.617C145.282 114.747 145.423 114.979 145.646 115.093C146.179 115.364 146.746 114.845 147.217 114.478C148.843 113.212 151.155 113.543 153.179 113.938C154.134 114.124 155.183 114.369 155.748 115.161C156.686 116.477 155.706 118.38 156.254 119.9C156.407 119.793 156.538 119.656 156.637 119.498C156.736 119.339 156.803 119.162 156.833 118.978C157.596 119.001 158.532 118.926 158.86 118.236C158.959 117.966 159.012 117.68 159.017 117.392C159.137 116.233 159.704 115.175 160.079 114.072C160.455 112.968 160.618 111.675 159.984 110.697C159.752 110.366 159.473 110.07 159.154 109.821C155.556 106.8 150.826 106.302 146.296 106.307Z" fill="#082032"/>
<path id="Vector_36" d="M164.609 137.915L167.594 138.706C167.594 138.706 174.54 156.485 172.938 168.652C171.337 180.818 170.375 178.257 170.375 178.257C170.375 178.257 167.812 172.494 162.046 173.774L164.609 137.915Z" fill="#082032"/>
<path id="Vector_37" d="M133.015 277.425C132.243 278.474 132.397 279.974 131.713 281.083C131.12 282.044 130.002 282.548 129.26 283.399C129.023 283.682 128.812 283.986 128.629 284.306C127.941 285.458 127.382 286.935 128.059 288.093C128.605 289.025 129.751 289.389 130.802 289.638C132.131 289.951 133.511 290.202 134.855 289.963C136.199 289.723 137.513 288.9 137.992 287.623C138.086 287.302 138.198 286.986 138.328 286.677C139.056 285.244 141.341 285.228 142.086 283.804C142.608 282.807 142.129 281.602 141.649 280.584L140.185 277.475C139.699 276.444 137.729 277.037 136.702 276.79C135.363 276.467 133.979 276.112 133.015 277.425Z" fill="#082032"/>
<path id="Vector_38" d="M122.319 177.616L135.775 198.428C135.775 198.428 144.105 208.994 146.668 204.191C149.231 199.388 137.697 191.384 137.697 191.384L129.047 175.375L122.319 177.616Z" fill="#B0B0B0"/>
<path id="Vector_39" d="M129.047 138.555L126.484 137.915C126.484 137.915 121.358 139.516 120.077 146.239C118.795 152.963 119.756 179.858 121.358 180.178C122.96 180.498 129.27 175.495 130.28 176.556C131.29 177.616 128.086 172.173 129.047 169.292C130.008 166.41 129.047 138.555 129.047 138.555Z" fill="#082032"/>
<g id="Group 13">
<path id="Rectangle 55" d="M249.499 152.847H241.218V154.839H249.499V152.847Z" fill="#22577A"/>
<path id="Rectangle 56" d="M278.173 152.847H275.26V154.839H278.173V152.847Z" fill="#22577A"/>
<path id="Rectangle 57" d="M284 152.847H281.087V154.839H284V152.847Z" fill="#22577A"/>
<path id="Rectangle 58" d="M272.193 152.847H252.412V154.839H272.193V152.847Z" fill="#22577A"/>
<path id="Rectangle 59" d="M239.071 165.719H230.791V167.711H239.071V165.719Z" fill="#22577A"/>
<path id="Rectangle 60" d="M267.746 165.719H264.833V167.711H267.746V165.719Z" fill="#22577A"/>
<path id="Rectangle 61" d="M273.573 165.719H270.66V167.711H273.573V165.719Z" fill="#22577A"/>
<path id="Rectangle 62" d="M261.766 165.719H241.985V167.711H261.766V165.719Z" fill="#22577A"/>
<path id="Rectangle 63" d="M273.266 157.291H264.986V159.283H273.266V157.291Z" fill="#22577A"/>
<path id="Rectangle 64" d="M284.46 157.291H276.18V159.283H284.46V157.291Z" fill="#22577A"/>
<path id="Rectangle 66" d="M233.704 157.291H230.791V159.283H233.704V157.291Z" fill="#22577A"/>
<path id="Rectangle 67" d="M239.531 157.291H236.618V159.283H239.531V157.291Z" fill="#22577A"/>
<path id="Rectangle 68" d="M262.226 157.291H242.445V159.283H262.226V157.291Z" fill="#22577A"/>
<path id="Rectangle 69" d="M256.092 161.582H247.812V163.574H256.092V161.582Z" fill="#22577A"/>
<path id="Rectangle 70" d="M244.898 161.582H236.618V163.574H244.898V161.582Z" fill="#22577A"/>
<path id="Rectangle 71" d="M233.704 161.582H230.791V163.574H233.704V161.582Z" fill="#22577A"/>
<path id="Rectangle 73" d="M284.46 161.582H281.547V163.574H284.46V161.582Z" fill="#22577A"/>
<path id="Rectangle 74" d="M278.634 161.582H258.853V163.574H278.634V161.582Z" fill="#22577A"/>
</g>
</g>
</g>
<defs>
<clipPath id="clip0">
<rect width="197.931" height="186.265" fill="white" transform="translate(119.483 103.793)"/>
</clipPath>
</defs>
</svg>
