<svg width="893" height="900" viewBox="0 0 893 900" fill="none" xmlns="http://www.w3.org/2000/svg">
<g id="hero-image">
<path id="blob" d="M202.088 387.286C216.267 311.311 201.578 231.559 231.602 182.861C261.228 134.332 335.338 117.425 402.395 118.171C469.452 118.917 529.683 136.746 585.138 159.917C640.821 182.518 691.956 209.891 742.972 249.128C794.159 288.765 845.626 340.097 869.696 405.457C893.596 470.418 890.1 549.406 856.434 610.524C822.541 672.211 758.65 716.428 693.348 731.946C627.649 747.634 559.972 734.394 488.765 738.25C417.786 741.537 342.538 761.291 277.534 742.186C212.53 723.082 157.599 664.718 151.714 600.121C145.658 535.124 188.306 463.093 202.088 387.286Z" fill="#47FF29"/>
<g id="person-on-desk" clip-path="url(#clip0)">
<path id="Vector" d="M654.194 489.734V617.634L675.601 652.5L677.231 655.152H761.697L763.404 489.734H654.194Z" fill="#C2CED7"/>
<path id="Vector_2" opacity="0.1" d="M654.194 489.734V617.634L675.601 652.5L676.915 489.734H654.194Z" fill="black"/>
<path id="Vector_3" d="M450.279 486.323V614.224L428.872 649.09L427.243 651.741H342.776L341.07 486.323H450.279Z" fill="#C2CED7"/>
<path id="Vector_4" opacity="0.1" d="M450.279 486.323V614.224L428.872 649.09L427.559 486.323H450.279Z" fill="black"/>
<path id="Vector_5" d="M789 483.765V491.439H329.978V480.354L372.638 458.184H751.459L789 483.765Z" fill="#C2CED7"/>
<path id="Vector_6" opacity="0.1" d="M789 483.765V491.439H329.978V480.354L789 483.765Z" fill="black"/>
<path id="Vector_7" d="M395.675 522.135H375.198L366.666 516.166H405.06L395.675 522.135Z" fill="#082032"/>
<path id="Vector_8" d="M395.675 546.863H375.198L366.666 540.894H405.06L395.675 546.863Z" fill="#082032"/>
<path id="Vector_9" d="M395.675 581.823H375.198L366.666 575.853H405.06L395.675 581.823Z" fill="#082032"/>
<path id="Vector_10" d="M395.675 616.782H375.198L366.666 610.813H405.06L395.675 616.782Z" fill="#082032"/>
<path id="Vector_11" d="M708.799 525.546H729.276L737.808 519.577H699.414L708.799 525.546Z" fill="#082032"/>
<path id="Vector_12" d="M708.799 550.273H729.276L737.808 544.305H699.414L708.799 550.273Z" fill="#082032"/>
<path id="Vector_13" d="M708.799 585.233H729.276L737.808 579.265H699.414L708.799 585.233Z" fill="#082032"/>
<path id="Vector_14" d="M708.799 620.192H729.276L737.808 614.224H699.414L708.799 620.192Z" fill="#082032"/>
<path id="Vector_15" d="M722.743 310.28H550.357C549.501 310.28 548.653 310.448 547.862 310.776C547.071 311.103 546.352 311.583 545.747 312.188C545.141 312.793 544.661 313.512 544.333 314.302C544.006 315.093 543.837 315.94 543.837 316.796V432.848C543.837 433.703 544.006 434.551 544.333 435.341C544.661 436.132 545.141 436.85 545.747 437.455C546.352 438.06 547.071 438.54 547.862 438.867C548.653 439.195 549.501 439.363 550.357 439.363H615.796L613.345 455.006C613.345 455.006 599.334 462.445 609.185 462.664C619.037 462.883 665.448 462.664 665.448 462.664C665.448 462.664 674.423 462.664 660.194 454.787L657.887 439.363H722.743C723.6 439.363 724.447 439.195 725.238 438.867C726.029 438.54 726.748 438.06 727.354 437.455C727.959 436.85 728.439 436.132 728.767 435.341C729.094 434.551 729.263 433.703 729.263 432.848V316.796C729.263 315.94 729.094 315.093 728.767 314.302C728.439 313.512 727.959 312.793 727.354 312.188C726.748 311.583 726.029 311.103 725.238 310.776C724.447 310.448 723.6 310.28 722.743 310.28Z" fill="#082032"/>
<path id="Vector_16" d="M723.024 317.172H550.077V413.875H723.024V317.172Z" fill="#F2F2F2"/>
<path id="Vector_17" d="M636.55 315.203C637.155 315.203 637.645 314.713 637.645 314.109C637.645 313.505 637.155 313.015 636.55 313.015C635.946 313.015 635.456 313.505 635.456 314.109C635.456 314.713 635.946 315.203 636.55 315.203Z" fill="#F2F2F2"/>
<path id="Vector_18" d="M636.55 434.659C638.847 434.659 640.71 432.798 640.71 430.502C640.71 428.207 638.847 426.345 636.55 426.345C634.253 426.345 632.391 428.207 632.391 430.502C632.391 432.798 634.253 434.659 636.55 434.659Z" fill="#F2F2F2"/>
<path id="Vector_19" d="M630.069 474.478V476.666H512.29V474.916L512.451 474.478L515.354 466.602H627.66L630.069 474.478Z" fill="#082032"/>
<path id="Vector_20" d="M675.394 472.336C675.179 473.253 674.369 474.22 672.539 475.134C665.971 478.416 652.617 474.259 652.617 474.259C652.617 474.259 642.328 472.509 642.328 467.915C642.617 467.717 642.918 467.538 643.23 467.379C645.991 465.919 655.146 462.316 671.38 467.531C672.575 467.906 673.644 468.606 674.465 469.552C674.829 469.91 675.103 470.348 675.265 470.832C675.426 471.316 675.47 471.832 675.394 472.336Z" fill="#082032"/>
<path id="Vector_21" opacity="0.1" d="M675.394 472.336C667.355 475.414 660.19 475.644 652.836 470.54C650.055 468.485 646.688 467.377 643.23 467.379C645.991 465.919 655.146 462.316 671.38 467.531C672.576 467.906 673.644 468.606 674.465 469.552C674.829 469.91 675.103 470.349 675.265 470.832C675.426 471.316 675.47 471.832 675.394 472.336Z" fill="black"/>
<path id="Vector_22" d="M665.315 470.54C666.886 470.54 668.161 470.148 668.161 469.665C668.161 469.182 666.886 468.79 665.315 468.79C663.743 468.79 662.469 469.182 662.469 469.665C662.469 470.148 663.743 470.54 665.315 470.54Z" fill="#F2F2F2"/>
<path id="Vector_23" opacity="0.1" d="M630.069 474.478V476.666H512.29V474.916L512.451 474.478H630.069Z" fill="black"/>
<path id="Vector_24" d="M362.487 227C361.292 226.902 360.095 227.169 359.055 227.766C358.034 228.465 357.39 229.689 356.733 230.829C354.221 235.237 350.821 239.075 346.747 242.101C343.78 244.274 340.008 246.982 340.516 250.987C340.784 252.31 341.272 253.578 341.962 254.738C344.699 260.26 352.169 264.528 351.434 270.829C354.153 266.279 350.516 264.029 353.235 259.479C354.53 257.312 356.78 254.867 358.735 256.227C359.39 256.683 359.82 257.5 360.502 257.9C362.128 258.854 363.859 257.03 365.299 255.738C370.264 251.284 377.324 252.451 383.503 253.839C386.419 254.494 389.623 255.354 391.347 258.14C393.614 261.803 389.193 265.759 388.076 269.9C387.985 270.253 387.981 270.623 388.064 270.978C388.147 271.333 388.315 271.662 388.553 271.938C388.791 272.214 389.092 272.429 389.431 272.563C389.771 272.697 390.137 272.747 390.5 272.709C392.354 272.526 394.55 272.376 394.659 271.563C396.992 271.646 399.85 271.382 400.849 268.955C401.155 267.995 401.316 266.994 401.328 265.987C401.695 261.91 403.427 258.19 404.574 254.31C405.721 250.429 406.219 245.881 404.284 242.441C403.593 241.296 402.738 240.259 401.748 239.361C390.762 228.736 376.319 226.984 362.487 227Z" fill="#082032"/>
<path id="Vector_25" d="M353.823 278.787C353.823 278.787 356.212 298.684 347.452 300.276C338.692 301.867 355.416 328.927 355.416 328.927L395.233 333.702L385.677 301.867C385.677 301.867 379.306 299.48 383.288 283.563C387.27 267.645 353.823 278.787 353.823 278.787Z" fill="#FFB8B8"/>
<path id="Vector_26" d="M329.534 620.611L332.72 664.383H349.443L344.665 620.611H329.534Z" fill="#FFB8B8"/>
<path id="Vector_27" d="M452.173 537.841L454.562 574.451L472.878 566.492L465.711 536.249L452.173 537.841Z" fill="#FFB8B8"/>
<path id="Vector_28" d="M317.589 453.479C317.589 453.479 318.385 499.64 323.163 514.761C327.941 529.882 327.145 530.678 326.349 533.066C325.552 535.453 324.756 533.862 324.756 537.841C324.756 541.82 323.163 604.693 324.756 610.265C326.349 615.836 319.978 625.386 324.756 626.182C329.534 626.978 351.832 626.182 352.628 621.407C353.425 616.631 346.257 615.04 349.443 611.856C352.628 608.673 357.406 543.412 357.406 543.412L368.555 498.048L389.261 474.172H433.06L446.598 526.699C446.598 526.699 441.024 541.82 445.006 541.82C448.987 541.82 472.878 546.595 472.878 529.086C472.878 511.577 464.915 459.846 463.322 458.255C461.729 456.663 464.118 451.092 461.729 448.704C459.34 446.317 431.468 429.604 421.115 426.42C410.762 423.237 396.239 419.448 396.239 419.448L317.589 453.479Z" fill="#082032"/>
<path id="Vector_29" d="M472.878 560.125C472.878 560.125 460.933 556.146 455.358 568.084C449.784 580.022 452.173 583.205 452.173 583.205C452.173 583.205 470.489 589.572 473.675 586.389C475.061 585.004 479.461 584.522 483.991 584.421C490.89 584.266 492.726 574.511 486.21 572.24C486.016 572.172 485.819 572.113 485.62 572.063C479.249 570.471 472.878 560.125 472.878 560.125Z" fill="#082032"/>
<path id="Vector_30" d="M371.741 291.919C384.935 291.919 395.631 281.23 395.631 268.043C395.631 254.857 384.935 244.167 371.741 244.167C358.546 244.167 347.85 254.857 347.85 268.043C347.85 281.23 358.546 291.919 371.741 291.919Z" fill="#FFB8B8"/>
<path id="Vector_31" d="M340.683 310.224C340.683 310.224 379.705 318.183 389.261 305.449C398.817 292.715 402.799 341.263 402.799 341.263L407.577 392.198L400.41 420.053C400.41 420.053 362.981 450.296 351.036 452.684C339.09 455.071 320.774 456.663 320.774 456.663C320.774 456.663 326.349 368.322 326.349 366.73C326.349 365.139 340.683 310.224 340.683 310.224Z" fill="#22577A"/>
<path id="Vector_32" d="M352.55 295.298C352.55 295.298 343.868 290.327 341.479 295.103C339.09 299.878 316.792 311.816 314.403 311.816C312.014 311.816 319.181 377.872 315.996 385.831C312.81 393.79 297.68 451.888 306.44 456.663C315.199 461.438 308.829 451.888 317.589 463.826C326.348 475.764 369.352 475.764 371.741 470.988C374.13 466.213 352.628 430.399 356.61 396.973C360.592 363.547 366.963 317.387 361.388 311.02C355.814 304.653 352.55 295.298 352.55 295.298Z" fill="#082032"/>
<path id="Vector_33" d="M381.297 300.674L382.406 296.859C382.406 296.859 415.54 307.836 417.133 314.999C418.726 322.162 417.93 372.301 412.355 376.281C406.781 380.26 398.817 386.627 404.391 396.177C409.966 405.728 416.337 416.074 421.115 416.87C425.893 417.666 434.653 423.237 432.264 428.808C429.875 434.379 401.206 424.032 401.206 424.032C401.206 424.032 382.093 409.707 382.89 387.423C383.686 365.139 381.297 300.674 381.297 300.674Z" fill="#082032"/>
<path id="Vector_34" d="M409.17 394.586L390.057 430.399C390.057 430.399 362.185 459.05 378.112 462.234C394.039 465.417 402.799 435.97 402.799 435.97L423.504 406.524L409.17 394.586Z" fill="#FFB8B8"/>
<path id="Vector_35" d="M363.651 233.247C362.688 233.176 361.723 233.363 360.857 233.789C360.073 234.361 359.428 235.1 358.967 235.953C356.843 239.146 354.074 241.86 350.838 243.921C348.423 245.456 345.352 247.37 345.765 250.201C345.99 251.15 346.389 252.049 346.943 252.852C349.178 256.795 350.068 261.358 349.478 265.851L356.119 256.203C357.174 254.672 359.005 252.943 360.597 253.905C361.13 254.227 361.48 254.804 362.035 255.087C363.359 255.761 364.767 254.472 365.94 253.559C369.981 250.411 375.729 251.236 380.758 252.217C383.133 252.68 385.741 253.287 387.144 255.257C389.477 258.529 387.041 263.257 388.403 267.037C388.784 266.771 389.107 266.43 389.354 266.037C389.601 265.643 389.767 265.203 389.84 264.744C391.739 264.803 394.066 264.616 394.879 262.901C395.127 262.228 395.258 261.519 395.269 260.803C395.568 257.921 396.977 255.292 397.911 252.549C398.845 249.807 399.251 246.592 397.675 244.161C397.099 243.337 396.403 242.603 395.61 241.983C386.668 234.474 374.911 233.236 363.651 233.247Z" fill="#082032"/>
<path id="Vector_36" d="M409.17 311.816L416.589 313.784C416.589 313.784 433.857 357.976 429.875 388.219C425.893 418.461 423.504 412.095 423.504 412.095C423.504 412.095 417.133 397.769 402.799 400.952L409.17 311.816Z" fill="#082032"/>
<path id="Vector_37" d="M330.637 658.598C328.717 661.206 329.102 664.934 327.401 667.69C325.926 670.079 323.147 671.332 321.303 673.449C320.714 674.152 320.19 674.906 319.735 675.702C318.024 678.566 316.634 682.237 318.319 685.116C319.674 687.433 322.523 688.338 325.136 688.955C328.439 689.735 331.871 690.359 335.211 689.763C338.552 689.167 341.817 687.123 343.009 683.947C343.243 683.148 343.521 682.363 343.842 681.596C345.653 678.033 351.333 677.995 353.186 674.454C354.483 671.976 353.291 668.981 352.099 666.451L348.459 658.723C347.251 656.159 342.355 657.633 339.803 657.019C336.473 656.218 333.032 655.335 330.637 658.598Z" fill="#082032"/>
<path id="Vector_38" d="M304.051 410.503L337.498 462.234C337.498 462.234 358.203 488.497 364.574 476.559C370.944 464.622 342.276 444.725 342.276 444.725L320.774 404.932L304.051 410.503Z" fill="#FFB8B8"/>
<path id="Vector_39" d="M320.774 313.407L314.403 311.816C314.403 311.816 301.662 315.795 298.476 332.508C295.291 349.221 297.68 416.074 301.662 416.87C305.643 417.666 321.328 405.229 323.838 407.866C326.349 410.503 318.385 396.973 320.774 389.81C323.163 382.648 320.774 313.407 320.774 313.407Z" fill="#082032"/>
<g id="Group 13">
<path id="Rectangle 55" d="M620.181 348.932H599.598V353.884H620.181V348.932Z" fill="#22577A"/>
<path id="Rectangle 56" d="M691.458 348.932H684.216V353.884H691.458V348.932Z" fill="#22577A"/>
<path id="Rectangle 57" d="M705.942 348.932H698.7V353.884H705.942V348.932Z" fill="#22577A"/>
<path id="Rectangle 58" d="M676.593 348.932H627.423V353.884H676.593V348.932Z" fill="#22577A"/>
<path id="Rectangle 59" d="M594.262 380.93H573.679V385.882H594.262V380.93Z" fill="#22577A"/>
<path id="Rectangle 60" d="M665.539 380.93H658.297V385.882H665.539V380.93Z" fill="#22577A"/>
<path id="Rectangle 61" d="M680.023 380.93H672.781V385.882H680.023V380.93Z" fill="#22577A"/>
<path id="Rectangle 62" d="M650.674 380.93H601.504V385.882H650.674V380.93Z" fill="#22577A"/>
<path id="Rectangle 63" d="M679.261 359.979H658.678V364.931H679.261V359.979Z" fill="#22577A"/>
<path id="Rectangle 64" d="M707.086 359.979H686.503V364.931H707.086V359.979Z" fill="#22577A"/>
<path id="Rectangle 66" d="M580.921 359.979H573.679V364.931H580.921V359.979Z" fill="#22577A"/>
<path id="Rectangle 67" d="M595.405 359.979H588.163V364.931H595.405V359.979Z" fill="#22577A"/>
<path id="Rectangle 68" d="M651.817 359.979H602.647V364.931H651.817V359.979Z" fill="#22577A"/>
<path id="Rectangle 69" d="M636.571 370.645H615.988V375.597H636.571V370.645Z" fill="#22577A"/>
<path id="Rectangle 70" d="M608.746 370.645H588.163V375.597H608.746V370.645Z" fill="#22577A"/>
<path id="Rectangle 71" d="M580.921 370.645H573.679V375.597H580.921V370.645Z" fill="#22577A"/>
<path id="Rectangle 73" d="M707.086 370.645H699.844V375.597H707.086V370.645Z" fill="#22577A"/>
<path id="Rectangle 74" d="M692.601 370.645H643.432V375.597H692.601V370.645Z" fill="#22577A"/>
</g>
</g>
</g>
<defs>
<clipPath id="clip0">
<rect width="492" height="463" fill="white" transform="translate(297 227)"/>
</clipPath>
</defs>
</svg>
