<svg width="40" height="40" viewBox="0 0 40 40" fill="none" xmlns="http://www.w3.org/2000/svg">
<path id="home" d="M38.9215 17.3981C38.9206 17.3972 38.9197 17.3962 38.9188 17.3953L22.602 1.0791C21.9065 0.383301 20.9818 0 19.9982 0C19.0146 0 18.0899 0.382996 17.3941 1.0788L1.08586 17.3868C1.08036 17.3923 1.07487 17.3981 1.06938 17.4036C-0.358846 18.84 -0.356404 21.1707 1.0764 22.6035C1.731 23.2584 2.59556 23.6377 3.51994 23.6774C3.55747 23.681 3.59532 23.6829 3.63346 23.6829H4.28379V35.6906C4.28379 38.0667 6.21708 40 8.59379 40H14.9775C15.6244 40 16.1493 39.4754 16.1493 38.8281V29.4141C16.1493 28.3298 17.0313 27.4478 18.1156 27.4478H21.8808C22.9651 27.4478 23.8471 28.3298 23.8471 29.4141V38.8281C23.8471 39.4754 24.3717 40 25.019 40H31.4026C33.7793 40 35.7126 38.0667 35.7126 35.6906V23.6829H36.3157C37.2989 23.6829 38.2236 23.2999 38.9197 22.6041C40.354 21.1688 40.3547 18.8342 38.9215 17.3981Z" fill="#C2CED7"/>
</svg>
