<svg width="40" height="40" viewBox="0 0 40 40" fill="none" xmlns="http://www.w3.org/2000/svg">
<g id="me" clip-path="url(#clip0)">
<g id="Group">
<path id="Vector" d="M20.0002 19.5626C24.4475 19.5626 28.0531 15.1834 28.0531 9.78137C28.0531 4.3792 26.8693 0 20.0002 0C13.131 0 11.947 4.3792 11.947 9.78137C11.947 15.1834 15.5526 19.5626 20.0002 19.5626Z" fill="#47FF29"/>
<path id="Vector_2" d="M4.78959 34.4975C4.78829 34.1681 4.78698 34.4047 4.78959 34.4975V34.4975Z" fill="#47FF29"/>
<path id="Vector_3" d="M35.2097 34.7547C35.2138 34.6646 35.2111 34.1291 35.2097 34.7547V34.7547Z" fill="#47FF29"/>
<path id="Vector_4" d="M35.1926 34.1026C35.0435 24.692 33.8145 22.0105 24.4095 20.3132C24.4095 20.3132 23.0857 22.0001 19.9999 22.0001C16.9142 22.0001 15.5901 20.3132 15.5901 20.3132C6.28784 21.992 4.98407 24.6337 4.81264 33.7968C4.79858 34.5451 4.79207 34.5844 4.78955 34.4975C4.79012 34.6603 4.79081 34.9613 4.79081 35.4862C4.79081 35.4862 7.02989 40 19.9999 40C32.9698 40 35.2091 35.4862 35.2091 35.4862C35.2091 35.149 35.2093 34.9144 35.2097 34.7549C35.2072 34.8086 35.2021 34.7045 35.1926 34.1026Z" fill="#47FF29"/>
</g>
</g>
<defs>
<clipPath id="clip0">
<rect width="40" height="40" fill="white"/>
</clipPath>
</defs>
</svg>
