<svg width="40" height="40" viewBox="0 0 40 40" fill="none" xmlns="http://www.w3.org/2000/svg">
<g id="message">
<g id="Group">
<g id="Group_2">
<g id="Group_3">
<path id="Vector" d="M0.834908 7.43406C6.32475 12.0834 15.9577 20.2629 18.789 22.8133C19.169 23.1575 19.5767 23.3325 19.9999 23.3325C20.4222 23.3325 20.8292 23.1591 21.2084 22.8166C24.0421 20.2637 33.6751 12.0834 39.165 7.43406C39.5068 7.14516 39.5589 6.63734 39.2822 6.28414C38.6425 5.46797 37.6887 5 36.6665 5H3.33327C2.31116 5 1.35733 5.46797 0.71772 6.28422C0.441002 6.63734 0.493111 7.14516 0.834908 7.43406Z" fill="#C2CED7"/>
<path id="Vector_2" d="M39.5166 9.95353C39.2212 9.81603 38.8737 9.864 38.628 10.074C32.5398 15.2351 24.7697 21.8506 22.325 24.0535C20.9529 25.292 19.0486 25.292 17.6733 24.0518C15.0675 21.704 6.34188 14.2862 1.37203 10.0739C1.12461 9.86392 0.776328 9.81759 0.483359 9.95345C0.188828 10.0902 0 10.3849 0 10.7095V31.6666C0 33.505 1.49492 34.9999 3.33336 34.9999H36.6667C38.5051 34.9999 40 33.505 40 31.6666V10.7095C40 10.3849 39.8112 10.0895 39.5166 9.95353Z" fill="#C2CED7"/>
</g>
</g>
</g>
</g>
</svg>
