<svg width="492" height="463" viewBox="0 0 492 463" fill="none" xmlns="http://www.w3.org/2000/svg">
<g id="person-on-desk" clip-path="url(#clip0)">
<path id="Vector" d="M357.194 262.734V390.634L378.601 425.5L380.231 428.152H464.697L466.404 262.734H357.194Z" fill="#C2CED7"/>
<path id="Vector_2" opacity="0.1" d="M357.194 262.734V390.634L378.601 425.5L379.915 262.734H357.194Z" fill="black"/>
<path id="Vector_3" d="M153.279 259.323V387.224L131.872 422.09L130.243 424.741H45.7765L44.0698 259.323H153.279Z" fill="#C2CED7"/>
<path id="Vector_4" opacity="0.1" d="M153.279 259.323V387.224L131.872 422.09L130.559 259.323H153.279Z" fill="black"/>
<path id="Vector_5" d="M492 256.765V264.439H32.978V253.354L75.6379 231.184H454.459L492 256.765Z" fill="#C2CED7"/>
<path id="Vector_6" opacity="0.1" d="M492 256.765V264.439H32.978V253.354L492 256.765Z" fill="black"/>
<path id="Vector_7" d="M98.675 295.135H78.1977L69.6658 289.166H108.06L98.675 295.135Z" fill="#082032"/>
<path id="Vector_8" d="M98.675 319.863H78.1977L69.6658 313.894H108.06L98.675 319.863Z" fill="#082032"/>
<path id="Vector_9" d="M98.675 354.823H78.1977L69.6658 348.853H108.06L98.675 354.823Z" fill="#082032"/>
<path id="Vector_10" d="M98.675 389.782H78.1977L69.6658 383.813H108.06L98.675 389.782Z" fill="#082032"/>
<path id="Vector_11" d="M411.799 298.546H432.276L440.808 292.577H402.414L411.799 298.546Z" fill="#082032"/>
<path id="Vector_12" d="M411.799 323.273H432.276L440.808 317.305H402.414L411.799 323.273Z" fill="#082032"/>
<path id="Vector_13" d="M411.799 358.233H432.276L440.808 352.265H402.414L411.799 358.233Z" fill="#082032"/>
<path id="Vector_14" d="M411.799 393.192H432.276L440.808 387.224H402.414L411.799 393.192Z" fill="#082032"/>
<path id="Vector_15" d="M425.743 83.2801H253.357C252.501 83.28 251.653 83.4485 250.862 83.7759C250.071 84.1032 249.352 84.5832 248.747 85.1882C248.141 85.7932 247.661 86.5115 247.333 87.3021C247.006 88.0926 246.837 88.9399 246.837 89.7955V205.848C246.837 206.703 247.006 207.551 247.333 208.341C247.661 209.132 248.141 209.85 248.747 210.455C249.352 211.06 250.071 211.54 250.862 211.867C251.653 212.195 252.501 212.363 253.357 212.363H318.796L316.345 228.006C316.345 228.006 302.334 235.445 312.185 235.664C322.037 235.883 368.448 235.664 368.448 235.664C368.448 235.664 377.423 235.664 363.194 227.787L360.887 212.363H425.743C426.6 212.363 427.447 212.195 428.238 211.867C429.029 211.54 429.748 211.06 430.354 210.455C430.959 209.85 431.439 209.132 431.767 208.341C432.094 207.551 432.263 206.703 432.263 205.848V89.7955C432.263 88.9399 432.094 88.0926 431.767 87.3021C431.439 86.5115 430.959 85.7932 430.354 85.1882C429.748 84.5832 429.029 84.1032 428.238 83.7759C427.447 83.4485 426.6 83.28 425.743 83.2801Z" fill="#082032"/>
<path id="Vector_16" d="M426.024 90.1718H253.077V186.875H426.024V90.1718Z" fill="#F2F2F2"/>
<path id="Vector_17" d="M339.55 88.2028C340.155 88.2028 340.645 87.713 340.645 87.1088C340.645 86.5047 340.155 86.0149 339.55 86.0149C338.946 86.0149 338.456 86.5047 338.456 87.1088C338.456 87.713 338.946 88.2028 339.55 88.2028Z" fill="#F2F2F2"/>
<path id="Vector_18" d="M339.55 207.659C341.847 207.659 343.71 205.798 343.71 203.502C343.71 201.207 341.847 199.345 339.55 199.345C337.253 199.345 335.391 201.207 335.391 203.502C335.391 205.798 337.253 207.659 339.55 207.659Z" fill="#F2F2F2"/>
<path id="Vector_19" d="M333.069 247.478V249.666H215.29V247.916L215.451 247.478L218.354 239.602H330.66L333.069 247.478Z" fill="#082032"/>
<path id="Vector_20" d="M378.394 245.336C378.179 246.253 377.369 247.22 375.539 248.134C368.971 251.416 355.617 247.259 355.617 247.259C355.617 247.259 345.328 245.509 345.328 240.915C345.617 240.717 345.918 240.538 346.23 240.379C348.991 238.919 358.146 235.316 374.38 240.531C375.575 240.906 376.644 241.606 377.465 242.552C377.829 242.91 378.103 243.348 378.265 243.832C378.426 244.316 378.47 244.832 378.394 245.336Z" fill="#082032"/>
<path id="Vector_21" opacity="0.1" d="M378.394 245.336C370.355 248.414 363.19 248.644 355.836 243.54C353.055 241.485 349.688 240.377 346.23 240.379C348.991 238.919 358.146 235.316 374.38 240.531C375.576 240.906 376.644 241.606 377.465 242.552C377.829 242.91 378.103 243.349 378.265 243.832C378.426 244.316 378.47 244.832 378.394 245.336Z" fill="black"/>
<path id="Vector_22" d="M368.315 243.54C369.886 243.54 371.161 243.148 371.161 242.665C371.161 242.182 369.886 241.79 368.315 241.79C366.743 241.79 365.469 242.182 365.469 242.665C365.469 243.148 366.743 243.54 368.315 243.54Z" fill="#F2F2F2"/>
<path id="Vector_23" opacity="0.1" d="M333.069 247.478V249.666H215.29V247.916L215.451 247.478H333.069Z" fill="black"/>
<path id="Vector_24" d="M65.4869 9.22438e-05C64.2915 -0.0979886 63.0946 0.16923 62.0547 0.766339C61.0336 1.46518 60.39 2.68947 59.7331 3.82875C57.2214 8.23667 53.821 12.0753 49.7474 15.1013C46.7803 17.2736 43.0081 19.9822 43.5158 23.9873C43.7836 25.31 44.2725 26.5781 44.962 27.7384C47.6992 33.2603 55.1685 37.5277 54.4338 43.8287C57.1533 39.2789 53.5158 37.0291 56.2353 32.4793C57.5304 30.3125 59.7802 27.8666 61.7355 29.2274C62.3902 29.683 62.8201 30.5001 63.5018 30.8999C65.1283 31.8538 66.8588 30.0302 68.2986 28.7385C73.2636 24.2842 80.3242 25.4511 86.5026 26.839C89.4193 27.4941 92.6231 28.3538 94.3474 31.1398C96.6144 34.8028 92.1935 38.7589 91.0765 42.9004C90.9853 43.2532 90.981 43.623 91.0639 43.9779C91.1469 44.3328 91.3146 44.6623 91.5527 44.9383C91.7909 45.2144 92.0924 45.4286 92.4315 45.5628C92.7706 45.697 93.1371 45.7471 93.4998 45.7088C95.3537 45.5261 97.5498 45.3763 97.6595 44.5632C99.9919 44.6462 102.85 44.3822 103.849 41.955C104.155 40.9947 104.316 39.9945 104.328 38.9869C104.695 34.9097 106.427 31.1901 107.574 27.3096C108.721 23.4291 109.219 18.8815 107.284 15.441C106.593 14.2963 105.738 13.2585 104.748 12.3605C93.7625 1.73638 79.3195 -0.015678 65.4869 9.22438e-05Z" fill="#082032"/>
<path id="Vector_25" d="M56.8229 51.7874C56.8229 51.7874 59.212 71.684 50.452 73.2757C41.6921 74.8674 58.4156 101.927 58.4156 101.927L98.2334 106.702L88.6772 74.8674C88.6772 74.8674 82.3063 72.4798 86.2881 56.5626C90.2699 40.6453 56.8229 51.7874 56.8229 51.7874Z" fill="#FFB8B8"/>
<path id="Vector_26" d="M32.5339 393.611L35.7197 437.383H52.4426L47.665 393.611H32.5339Z" fill="#FFB8B8"/>
<path id="Vector_27" d="M155.173 310.841L157.562 347.451L175.878 339.492L168.711 309.249L155.173 310.841Z" fill="#FFB8B8"/>
<path id="Vector_28" d="M20.5886 226.479C20.5886 226.479 21.385 272.64 26.1631 287.761C30.9413 302.882 30.1449 303.678 29.3486 306.066C28.5522 308.453 27.7559 306.862 27.7559 310.841C27.7559 314.82 26.1631 377.693 27.7559 383.265C29.3486 388.836 22.9777 398.386 27.7559 399.182C32.534 399.978 54.832 399.182 55.6283 394.407C56.4247 389.631 49.2575 388.04 52.4429 384.856C55.6283 381.673 60.4065 316.412 60.4065 316.412L71.5555 271.048L92.2607 247.172H136.06L149.598 299.699C149.598 299.699 144.024 314.82 148.006 314.82C151.987 314.82 175.878 319.595 175.878 302.086C175.878 284.577 167.915 232.846 166.322 231.255C164.729 229.663 167.118 224.092 164.729 221.704C162.34 219.317 134.468 202.604 124.115 199.42C113.762 196.237 99.2394 192.448 99.2394 192.448L20.5886 226.479Z" fill="#082032"/>
<path id="Vector_29" d="M175.878 333.125C175.878 333.125 163.933 329.146 158.358 341.084C152.784 353.022 155.173 356.205 155.173 356.205C155.173 356.205 173.489 362.572 176.675 359.389C178.061 358.004 182.461 357.522 186.991 357.421C193.89 357.266 195.726 347.511 189.21 345.24C189.016 345.172 188.819 345.113 188.62 345.063C182.249 343.471 175.878 333.125 175.878 333.125Z" fill="#082032"/>
<path id="Vector_30" d="M74.7408 64.9191C87.9352 64.9191 98.6315 54.2295 98.6315 41.0432C98.6315 27.8569 87.9352 17.1673 74.7408 17.1673C61.5463 17.1673 50.8501 27.8569 50.8501 41.0432C50.8501 54.2295 61.5463 64.9191 74.7408 64.9191Z" fill="#FFB8B8"/>
<path id="Vector_31" d="M43.6831 83.224C43.6831 83.224 82.7046 91.1826 92.2608 78.4488C101.817 65.715 105.799 114.263 105.799 114.263L110.577 165.198L103.41 193.053C103.41 193.053 65.9811 223.296 54.0357 225.684C42.0904 228.071 23.7742 229.663 23.7742 229.663C23.7742 229.663 29.3487 141.322 29.3487 139.73C29.3487 138.139 43.6831 83.224 43.6831 83.224Z" fill="#22577A"/>
<path id="Vector_32" d="M55.5503 68.2978C55.5503 68.2978 46.8683 63.3274 44.4793 68.1026C42.0902 72.8778 19.7922 84.8157 17.4031 84.8157C15.0141 84.8157 22.1813 150.872 18.9958 158.831C15.8104 166.79 0.679657 224.888 9.43958 229.663C18.1995 234.438 11.8286 224.888 20.5886 236.826C29.3485 248.764 72.3517 248.764 74.7408 243.988C77.1299 239.213 55.6282 203.399 59.61 169.973C63.5918 136.547 69.9627 90.3868 64.3882 84.0198C58.8137 77.6529 55.5503 68.2978 55.5503 68.2978Z" fill="#082032"/>
<path id="Vector_33" d="M84.2971 73.6736L85.4064 69.8586C85.4064 69.8586 118.54 80.8364 120.133 87.9992C121.726 95.162 120.93 145.301 115.355 149.281C109.781 153.26 101.817 159.627 107.391 169.177C112.966 178.728 119.337 189.074 124.115 189.87C128.893 190.666 137.653 196.237 135.264 201.808C132.875 207.379 104.206 197.032 104.206 197.032C104.206 197.032 85.0935 182.707 85.8898 160.423C86.6862 138.139 84.2971 73.6736 84.2971 73.6736Z" fill="#082032"/>
<path id="Vector_34" d="M112.17 167.586L93.0571 203.399C93.0571 203.399 65.1847 232.05 81.1118 235.234C97.039 238.417 105.799 208.97 105.799 208.97L126.504 179.524L112.17 167.586Z" fill="#FFB8B8"/>
<path id="Vector_35" d="M66.6506 6.24718C65.6876 6.17587 64.7231 6.36284 63.8566 6.78876C63.0732 7.36057 62.4275 8.10007 61.9668 8.95325C59.8427 12.1464 57.0738 14.8603 53.838 16.9206C51.4227 18.456 48.352 20.3704 48.7652 23.2012C48.9895 24.1503 49.3888 25.0494 49.9425 25.8524C52.1784 29.7947 53.0685 34.3577 52.4781 38.8506L59.1195 29.2032C60.1737 27.6718 62.0051 25.9431 63.5968 26.9048C64.1298 27.2269 64.4797 27.8044 65.0347 28.087C66.3588 28.7612 67.7674 27.4723 68.9395 26.5593C72.9812 23.411 78.7288 24.2358 83.7583 25.2167C86.1327 25.6798 88.7407 26.2874 90.1443 28.2565C92.4768 31.5289 90.0412 36.2571 91.4025 40.0375C91.7836 39.7709 92.1072 39.4305 92.3542 39.0365C92.6012 38.6426 92.7666 38.2031 92.8405 37.7441C94.7391 37.8028 97.0656 37.6162 97.8791 35.9006C98.1266 35.2283 98.2584 34.519 98.2691 33.8027C98.5677 30.921 99.9772 28.2921 100.911 25.5494C101.845 22.8067 102.251 19.5924 100.675 17.1607C100.099 16.3367 99.4028 15.603 98.6105 14.9834C89.6681 7.47436 77.9109 6.23603 66.6506 6.24718Z" fill="#082032"/>
<path id="Vector_36" d="M112.17 84.8157L119.589 86.7839C119.589 86.7839 136.857 130.976 132.875 161.219C128.893 191.461 126.504 185.095 126.504 185.095C126.504 185.095 120.133 170.769 105.799 173.952L112.17 84.8157Z" fill="#082032"/>
<path id="Vector_37" d="M33.6372 431.598C31.7168 434.206 32.1019 437.934 30.4008 440.69C28.9262 443.079 26.1473 444.332 24.303 446.449C23.7145 447.152 23.1898 447.906 22.7353 448.702C21.0244 451.566 19.6337 455.237 21.3187 458.116C22.6742 460.433 25.5234 461.338 28.1364 461.955C31.4391 462.735 34.8706 463.359 38.2115 462.763C41.5523 462.167 44.8174 460.123 46.0085 456.947C46.2426 456.148 46.521 455.363 46.8422 454.596C48.653 451.033 54.3327 450.995 56.1859 447.454C57.4827 444.976 56.2906 441.981 55.0989 439.451L51.4593 431.723C50.2515 429.159 45.3551 430.633 42.8025 430.019C39.4734 429.218 36.0322 428.335 33.6372 431.598Z" fill="#082032"/>
<path id="Vector_38" d="M7.05054 183.503L40.4975 235.234C40.4975 235.234 61.2028 261.497 67.5736 249.559C73.9445 237.622 45.2756 217.725 45.2756 217.725L23.774 177.932L7.05054 183.503Z" fill="#FFB8B8"/>
<path id="Vector_39" d="M23.7741 86.4074L17.4032 84.8157C17.4032 84.8157 4.66153 88.795 1.47611 105.508C-1.70931 122.221 0.679751 189.074 4.66153 189.87C8.64331 190.666 24.3275 178.229 26.838 180.866C29.3486 183.503 21.385 169.973 23.7741 162.81C26.1631 155.648 23.7741 86.4074 23.7741 86.4074Z" fill="#082032"/>
<g id="Group 13">
<path id="Rectangle 55" d="M323.181 121.932H302.598V126.884H323.181V121.932Z" fill="#22577A"/>
<path id="Rectangle 56" d="M394.458 121.932H387.216V126.884H394.458V121.932Z" fill="#22577A"/>
<path id="Rectangle 57" d="M408.942 121.932H401.7V126.884H408.942V121.932Z" fill="#22577A"/>
<path id="Rectangle 58" d="M379.593 121.932H330.423V126.884H379.593V121.932Z" fill="#22577A"/>
<path id="Rectangle 59" d="M297.262 153.93H276.679V158.882H297.262V153.93Z" fill="#22577A"/>
<path id="Rectangle 60" d="M368.539 153.93H361.297V158.882H368.539V153.93Z" fill="#22577A"/>
<path id="Rectangle 61" d="M383.023 153.93H375.781V158.882H383.023V153.93Z" fill="#22577A"/>
<path id="Rectangle 62" d="M353.674 153.93H304.504V158.882H353.674V153.93Z" fill="#22577A"/>
<path id="Rectangle 63" d="M382.261 132.979H361.678V137.931H382.261V132.979Z" fill="#22577A"/>
<path id="Rectangle 64" d="M410.086 132.979H389.503V137.931H410.086V132.979Z" fill="#22577A"/>
<path id="Rectangle 66" d="M283.921 132.979H276.679V137.931H283.921V132.979Z" fill="#22577A"/>
<path id="Rectangle 67" d="M298.405 132.979H291.163V137.931H298.405V132.979Z" fill="#22577A"/>
<path id="Rectangle 68" d="M354.817 132.979H305.647V137.931H354.817V132.979Z" fill="#22577A"/>
<path id="Rectangle 69" d="M339.571 143.645H318.988V148.597H339.571V143.645Z" fill="#22577A"/>
<path id="Rectangle 70" d="M311.746 143.645H291.163V148.597H311.746V143.645Z" fill="#22577A"/>
<path id="Rectangle 71" d="M283.921 143.645H276.679V148.597H283.921V143.645Z" fill="#22577A"/>
<path id="Rectangle 73" d="M410.086 143.645H402.844V148.597H410.086V143.645Z" fill="#22577A"/>
<path id="Rectangle 74" d="M395.601 143.645H346.432V148.597H395.601V143.645Z" fill="#22577A"/>
</g>
</g>
<defs>
<clipPath id="clip0">
<rect width="492" height="463" fill="white"/>
</clipPath>
</defs>
</svg>
